<svg width="18" height="19" viewBox="0 0 18 19" fill="none" xmlns="http://www.w3.org/2000/svg">
<path d="M16.6839 11.6643V4.74369L8.34194 0L0 4.74369V14.2311L8.34194 18.9748L10.5611 17.7128C11.3493 18.5065 12.4479 19 13.6614 19C16.0537 19 18 17.083 18 14.7267C18 13.5269 17.4951 12.4412 16.6839 11.6643ZM8.34194 1.28718L14.9862 5.06547L12.23 6.63282L5.58573 2.85453L8.34194 1.28718ZM7.77603 17.3657L1.13181 13.5874V6.0309L7.77603 9.8092V17.3657ZM1.69772 5.06547L4.45392 3.49812L11.0982 7.27641L8.34194 8.84376L1.69772 5.06547ZM8.90784 17.3657V9.80916L15.5521 6.03087V10.8811C14.9803 10.6073 14.3388 10.4535 13.6614 10.4535C11.2691 10.4535 9.32281 12.3705 9.32281 14.7268C9.32281 15.4846 9.52438 16.1968 9.87711 16.8146L8.90784 17.3657ZM13.6614 17.8852C11.8932 17.8852 10.4546 16.4683 10.4546 14.7267C10.4546 12.9852 11.8932 11.5683 13.6614 11.5683C15.4296 11.5683 16.8682 12.9852 16.8682 14.7267C16.8682 16.4683 15.4297 17.8852 13.6614 17.8852Z" fill="#C4C4C4"/>
<path d="M15.0014 13.1075L13.1484 14.9427L12.3183 14.1334L11.5221 14.9257L13.1546 16.5174L15.8039 13.8935L15.0014 13.1075Z" fill="#C4C4C4"/>
</svg>
