<svg width="424" height="465" viewBox="0 0 424 465" fill="none" xmlns="http://www.w3.org/2000/svg">
<path d="M-30.7091 103.208C96.1623 163.389 238.245 53.7886 366.845 103.208C482.047 147.48 390.847 384.291 370.595 433.151C368.326 438.627 363.019 441.959 357.092 442.04C205.399 444.099 61.3501 492.698 -30.7091 441.973C-124.739 390.162 -157.581 43.0278 -30.7091 103.208Z" fill="#C4C4C4"/>
<path d="M-148.709 13.2085C-21.8377 73.3891 120.245 -36.2114 248.845 13.2085C364.047 57.4799 272.847 294.291 252.595 343.151C250.326 348.627 245.019 351.959 239.092 352.04C87.3987 354.099 -56.6499 402.698 -148.709 351.973C-242.739 300.162 -275.581 -46.9722 -148.709 13.2085Z" fill="#BCE3E5"/>
</svg>
