<svg width="157" height="46" viewBox="0 0 157 46" fill="none" xmlns="http://www.w3.org/2000/svg">
<path d="M1.93257 31.6585C2.89885 32.4575 3.98592 33.1099 5.19378 33.616C6.40163 34.122 7.8108 34.375 9.42127 34.375C11.3538 34.375 12.8838 33.9755 14.0111 33.1765C15.1385 32.3776 15.7021 31.299 15.7021 29.9407C15.7021 29.3814 15.6216 28.8621 15.4605 28.3827C15.2995 27.9033 14.9774 27.4506 14.4943 27.0245C14.038 26.5717 13.3804 26.1323 12.5214 25.7062C11.6894 25.2534 10.6023 24.774 9.26023 24.268C7.8108 23.7087 6.5761 23.1628 5.55614 22.6301C4.56301 22.0708 3.75777 21.4716 3.14042 20.8324C2.52308 20.1666 2.0802 19.4476 1.81178 18.6752C1.54337 17.8762 1.40916 16.9707 1.40916 15.9587C1.40916 14.9733 1.61047 14.0412 2.01309 13.1623C2.44255 12.2835 3.0599 11.5244 3.86514 10.8853C4.69722 10.2195 5.70376 9.70012 6.88478 9.32727C8.09263 8.95442 9.46153 8.76799 10.9915 8.76799C12.6556 8.76799 14.1453 8.9411 15.4605 9.28732C16.7758 9.60691 18.0776 10.073 19.3659 10.6855L17.9568 13.9213C17.0442 13.3887 15.9705 12.9493 14.7358 12.603C13.528 12.2302 12.253 12.0438 10.911 12.0438C9.13944 12.0438 7.7437 12.39 6.72373 13.0824C5.70376 13.7482 5.19378 14.6404 5.19378 15.759C5.19378 16.2916 5.26088 16.771 5.39509 17.1971C5.55613 17.5966 5.85139 17.9961 6.28085 18.3956C6.73715 18.7684 7.3545 19.1546 8.13289 19.5541C8.93813 19.9536 9.99836 20.393 11.3136 20.8724C12.8704 21.4583 14.1856 22.0575 15.2592 22.6701C16.3329 23.2826 17.1918 23.9351 17.836 24.6275C18.4802 25.32 18.9365 26.0657 19.2049 26.8647C19.5002 27.6636 19.6478 28.5425 19.6478 29.5013C19.6478 30.8062 19.3928 31.9648 18.8828 32.9768C18.3728 33.9888 17.6615 34.8544 16.7489 35.5734C15.8632 36.2659 14.7895 36.7985 13.528 37.1714C12.2664 37.5176 10.8975 37.6907 9.42127 37.6907C7.46186 37.6907 5.67692 37.4377 4.06645 36.9317C2.45597 36.399 1.10049 35.7066 0 34.8544L1.93257 31.6585Z" fill="#F2F2F2"/>
<path d="M27.1912 28.3028C27.4328 30.247 28.1172 31.765 29.2446 32.8569C30.3719 33.9489 31.8616 34.4948 33.7136 34.4948C34.9215 34.4948 36.0086 34.375 36.9748 34.1353C37.9411 33.869 38.8671 33.5361 39.7529 33.1366L40.5984 36.2126C39.6321 36.6654 38.5451 37.0249 37.3372 37.2912C36.1293 37.5575 34.7739 37.6907 33.2708 37.6907C31.7676 37.6907 30.4122 37.451 29.2043 36.9716C27.9965 36.4656 26.9631 35.7599 26.1041 34.8544C25.2721 33.9222 24.6279 32.7904 24.1716 31.4587C23.7153 30.1005 23.4871 28.5558 23.4871 26.8247C23.4871 25.28 23.7153 23.8419 24.1716 22.5103C24.6279 21.1787 25.2721 20.0335 26.1041 19.0747C26.9362 18.0893 27.9293 17.3303 29.0835 16.7976C30.2377 16.2384 31.5261 15.9587 32.9487 15.9587C34.4518 15.9587 35.767 16.2117 36.8943 16.7177C38.0216 17.2238 38.9611 17.9162 39.7127 18.7951C40.4642 19.6739 41.0279 20.6993 41.4036 21.8711C41.7794 23.0429 41.9673 24.2813 41.9673 25.5863C41.9673 26.5184 41.927 27.4239 41.8465 28.3028H27.1912ZM32.8681 19.0747C31.2845 19.0747 29.9827 19.6074 28.9627 20.6726C27.9696 21.7379 27.3657 23.3092 27.151 25.3866H38.6256C38.6256 23.3625 38.1156 21.8045 37.0956 20.7126C36.0757 19.6207 34.6665 19.0747 32.8681 19.0747Z" fill="#F2F2F2"/>
<path d="M50.2188 30.3402C50.2188 31.7783 50.514 32.8436 51.1045 33.5361C51.7219 34.2285 52.5674 34.5747 53.641 34.5747C54.151 34.5747 54.6476 34.5215 55.1307 34.4149C55.6139 34.2818 56.0433 34.1353 56.4191 33.9755L57.3049 36.8917C56.8217 37.1048 56.2178 37.2912 55.4931 37.451C54.7952 37.6108 54.0168 37.6907 53.1579 37.6907C52.2185 37.6907 51.3461 37.5575 50.5409 37.2912C49.7625 37.0249 49.078 36.6121 48.4875 36.0528C47.897 35.4935 47.4273 34.7745 47.0784 33.8956C46.7563 33.0167 46.5952 31.9514 46.5952 30.6997V7.64943H50.2188V30.3402Z" fill="#F2F2F2"/>
<path d="M63.7442 30.3402C63.7442 31.7783 64.0395 32.8436 64.63 33.5361C65.2474 34.2285 66.0928 34.5747 67.1665 34.5747C67.6765 34.5747 68.173 34.5215 68.6562 34.4149C69.1393 34.2818 69.5688 34.1353 69.9446 33.9755L70.8303 36.8917C70.3472 37.1048 69.7433 37.2912 69.0185 37.451C68.3207 37.6108 67.5423 37.6907 66.6834 37.6907C65.7439 37.6907 64.8716 37.5575 64.0663 37.2912C63.2879 37.0249 62.6035 36.6121 62.013 36.0528C61.4225 35.4935 60.9528 34.7745 60.6038 33.8956C60.2817 33.0167 60.1207 31.9514 60.1207 30.6997V7.64943H63.7442V30.3402Z" fill="#F2F2F2"/>
<path d="M92.3726 37.4111C91.0842 37.4111 90.0643 37.1581 89.3127 36.6521C88.5612 36.146 88.0378 35.4136 87.7425 34.4549C86.8031 35.4136 85.716 36.1993 84.4813 36.8118C83.2734 37.3978 81.9448 37.6907 80.4954 37.6907C79.5828 37.6907 78.697 37.5442 77.8381 37.2513C77.006 36.985 76.2545 36.5455 75.5834 35.933C74.9392 35.3204 74.4158 34.5215 74.0132 33.5361C73.6374 32.5507 73.4496 31.3522 73.4496 29.9407V16.4381H77.0731V29.4613C77.0731 31.0859 77.4086 32.3376 78.0797 33.2165C78.7775 34.0687 79.8109 34.4948 81.1798 34.4948C82.3072 34.4948 83.3808 34.2818 84.4008 33.8557C85.4207 33.4029 86.3334 32.8037 87.1386 32.058V16.4381H90.7621V31.8183C90.7621 32.4042 90.8293 32.8836 90.9635 33.2564C91.0977 33.6026 91.2721 33.8823 91.4869 34.0953C91.7016 34.2818 91.9566 34.4149 92.2518 34.4948C92.5471 34.5747 92.8423 34.6147 93.1376 34.6147L92.3726 37.4111Z" fill="#F2F2F2"/>
<path d="M96.5142 16.4381C98.9836 16.4381 100.527 17.4102 101.144 19.3543C101.332 19.0614 101.614 18.7152 101.99 18.3157C102.392 17.9162 102.876 17.5433 103.439 17.1971C104.003 16.8509 104.647 16.5579 105.372 16.3183C106.097 16.0786 106.902 15.9587 107.788 15.9587C108.995 15.9587 110.15 16.1984 111.25 16.6778C112.377 17.1572 113.357 17.8496 114.189 18.7551C115.048 19.6606 115.733 20.7792 116.243 22.1108C116.753 23.4424 117.008 24.9471 117.008 26.625C117.008 28.2762 116.753 29.7809 116.243 31.1392C115.759 32.4974 115.088 33.6692 114.229 34.6546C113.397 35.6134 112.431 36.3591 111.331 36.8917C110.23 37.4244 109.076 37.6907 107.868 37.6907C106.607 37.6907 105.439 37.451 104.365 36.9716C103.318 36.4656 102.446 35.893 101.748 35.2539V46H98.1247V21.7513C98.1247 20.8458 97.8966 20.2066 97.4403 19.8337C97.0108 19.4342 96.4471 19.2345 95.7493 19.2345L96.5142 16.4381ZM113.303 26.7448C113.303 25.5464 113.129 24.4811 112.78 23.5489C112.458 22.5902 112.002 21.7779 111.411 21.1121C110.847 20.4463 110.176 19.9403 109.398 19.594C108.646 19.2478 107.841 19.0747 106.982 19.0747C105.828 19.0747 104.781 19.3677 103.842 19.9536C102.929 20.5128 102.231 21.1254 101.748 21.7912V32.018C102.446 32.7371 103.238 33.3363 104.124 33.8157C105.036 34.2685 106.043 34.4948 107.143 34.4948C108.056 34.4948 108.888 34.3084 109.64 33.9356C110.391 33.5627 111.035 33.0434 111.572 32.3776C112.136 31.6851 112.565 30.8728 112.861 29.9407C113.156 28.9819 113.303 27.9166 113.303 26.7448Z" fill="#F2F2F2"/>
<path d="M154.632 10.904C154.593 10.4444 154.203 10.0923 153.738 10.0968H146.942V7.54149C146.942 3.37634 143.539 0 139.341 0C135.143 0 131.741 3.37634 131.741 7.54149V10.0968H124.945C124.482 10.0985 124.096 10.4472 124.051 10.904L121.708 37.6277C121.601 38.8668 122.023 40.0936 122.872 41.0096C123.72 41.9253 124.916 42.4462 126.17 42.4451H152.522C153.775 42.4462 154.972 41.9253 155.82 41.0096C156.668 40.0936 157.09 38.8668 156.984 37.6277L154.632 10.904ZM133.529 7.54149C133.529 4.35646 136.131 1.77447 139.341 1.77447C142.551 1.77447 145.154 4.35646 145.154 7.54149V10.0968H133.529V7.54149ZM154.498 39.8101C153.992 40.3626 153.274 40.6755 152.522 40.6707H126.161C125.409 40.671 124.691 40.3581 124.183 39.8084C123.674 39.2584 123.422 38.5219 123.487 37.7785L125.758 11.8713H131.741V17.4075C130.303 17.8466 129.405 19.263 129.628 20.7394C129.852 22.2155 131.13 23.3072 132.635 23.3072C134.139 23.3072 135.417 22.2155 135.641 20.7394C135.865 19.263 134.967 17.8466 133.529 17.4075V11.8623H145.154V17.4075C143.715 17.8466 142.817 19.263 143.041 20.7394C143.265 22.2155 144.543 23.3072 146.048 23.3072C147.552 23.3072 148.83 22.2155 149.054 20.7394C149.278 19.263 148.38 17.8466 146.942 17.4075V11.8623H152.915L155.186 37.7695C155.26 38.516 155.009 39.258 154.498 39.8101ZM132.501 19.0579C132.59 19.0696 132.68 19.0696 132.769 19.0579C133.43 19.1286 133.921 19.7004 133.885 20.3593C133.849 21.0184 133.3 21.5348 132.635 21.5348C131.969 21.5348 131.42 21.0184 131.385 20.3593C131.349 19.7004 131.839 19.1286 132.501 19.0579ZM145.914 19.0579C146.003 19.0696 146.093 19.0696 146.182 19.0579C146.843 19.1286 147.333 19.7004 147.298 20.3593C147.262 21.0184 146.713 21.5348 146.048 21.5348C145.382 21.5348 144.833 21.0184 144.798 20.3593C144.762 19.7004 145.252 19.1286 145.914 19.0579Z" fill="#F2F2F2"/>
</svg>
