<svg width="185" height="55" viewBox="0 0 185 55" fill="none" xmlns="http://www.w3.org/2000/svg">
<path d="M2.68447 37.4341C3.81815 38.3789 5.09353 39.1504 6.51063 39.7487C7.92772 40.347 9.581 40.6462 11.4705 40.6462C13.7378 40.6462 15.5328 40.1738 16.8554 39.2291C18.1781 38.2844 18.8394 37.009 18.8394 35.403C18.8394 34.7416 18.7449 34.1276 18.5559 33.5607C18.367 32.9939 17.9891 32.4585 17.4223 31.9547C16.8869 31.4193 16.1154 30.8997 15.1077 30.3959C14.1315 29.8605 12.8561 29.2937 11.2815 28.6954C9.581 28.034 8.13242 27.3885 6.93576 26.7587C5.77059 26.0973 4.82586 25.3888 4.10156 24.633C3.37727 23.8457 2.85767 22.9955 2.54276 22.0822C2.22785 21.1375 2.07039 20.0668 2.07039 18.8702C2.07039 17.705 2.30658 16.6028 2.77894 15.5636C3.2828 14.5244 4.00709 13.6269 4.95182 12.8711C5.92804 12.0838 7.10896 11.4698 8.49456 11.0289C9.91166 10.588 11.5177 10.3676 13.3127 10.3676C15.2651 10.3676 17.0129 10.5723 18.5559 10.9817C20.099 11.3595 21.6263 11.9106 23.1379 12.6349L21.4846 16.4611C20.4139 15.8313 19.1543 15.3117 17.7057 14.9023C16.2886 14.4614 14.7928 14.241 13.2182 14.241C11.1398 14.241 9.50228 14.6504 8.30562 15.4691C7.10896 16.2564 6.51063 17.3114 6.51063 18.634C6.51063 19.2638 6.58936 19.8306 6.74681 20.3345C6.93576 20.8069 7.28216 21.2792 7.78602 21.7516C8.32136 22.1925 9.04566 22.6491 9.9589 23.1214C10.9036 23.5938 12.1475 24.1134 13.6906 24.6803C15.5171 25.3731 17.0601 26.0816 18.3198 26.8059C19.5794 27.5302 20.5871 28.3017 21.3429 29.1205C22.0987 29.9393 22.634 30.821 22.9489 31.7657C23.2953 32.7105 23.4685 33.7497 23.4685 34.8833C23.4685 36.4264 23.1694 37.7963 22.5711 38.9929C21.9727 40.1896 21.1382 41.213 20.0675 42.0633C19.0283 42.8821 17.7687 43.5119 16.2886 43.9528C14.8085 44.3621 13.2025 44.5668 11.4705 44.5668C9.17162 44.5668 7.07747 44.2677 5.18801 43.6693C3.29854 43.0395 1.70825 42.2208 0.417114 41.213L2.68447 37.4341Z" fill="black"/>
<path d="M32.3188 33.4663C32.6022 35.7651 33.4052 37.5601 34.7278 38.8512C36.0504 40.1423 37.7982 40.7879 39.9711 40.7879C41.3882 40.7879 42.6636 40.6462 43.7972 40.3628C44.9309 40.0479 46.0174 39.6542 47.0566 39.1819L48.0485 42.8191C46.9148 43.3544 45.6395 43.7796 44.2224 44.0945C42.8053 44.4094 41.215 44.5668 39.4515 44.5668C37.688 44.5668 36.0977 44.2834 34.6806 43.7166C33.2635 43.1182 32.0511 42.2837 31.0434 41.213C30.0671 40.1109 29.3114 38.7725 28.776 37.1979C28.2407 35.5919 27.973 33.7654 27.973 31.7185C27.973 29.892 28.2407 28.1915 28.776 26.617C29.3114 25.0424 30.0671 23.6883 31.0434 22.5546C32.0196 21.3894 33.1848 20.4919 34.5389 19.8621C35.893 19.2008 37.4046 18.8702 39.0736 18.8702C40.8371 18.8702 42.3801 19.1693 43.7028 19.7677C45.0254 20.366 46.1276 21.1847 47.0093 22.224C47.8911 23.2632 48.5524 24.4756 48.9933 25.8612C49.4341 27.2468 49.6546 28.7111 49.6546 30.2542C49.6546 31.3564 49.6073 32.427 49.5129 33.4663H32.3188ZM38.9791 22.5546C37.1211 22.5546 35.5938 23.1844 34.3972 24.4441C33.232 25.7037 32.5234 27.5617 32.2715 30.018H45.7339C45.7339 27.6247 45.1356 25.7824 43.9389 24.4913C42.7423 23.2002 41.089 22.5546 38.9791 22.5546Z" fill="black"/>
<path d="M59.3355 35.8753C59.3355 37.5758 59.6819 38.8355 60.3747 39.6542C61.099 40.473 62.0909 40.8824 63.3506 40.8824C63.9489 40.8824 64.5315 40.8194 65.0983 40.6934C65.6652 40.536 66.169 40.3628 66.6099 40.1738L67.6491 43.6221C67.0823 43.874 66.3737 44.0945 65.5235 44.2834C64.7047 44.4724 63.7915 44.5668 62.7837 44.5668C61.6816 44.5668 60.6581 44.4094 59.7134 44.0945C58.8001 43.7796 57.9971 43.2915 57.3043 42.6301C56.6115 41.9688 56.0604 41.1186 55.651 40.0794C55.2731 39.0402 55.0842 37.7805 55.0842 36.3004V9.04496H59.3355V35.8753Z" fill="black"/>
<path d="M75.204 35.8753C75.204 37.5758 75.5504 38.8355 76.2432 39.6542C76.9675 40.473 77.9595 40.8824 79.2191 40.8824C79.8174 40.8824 80.4 40.8194 80.9669 40.6934C81.5337 40.536 82.0376 40.3628 82.4784 40.1738L83.5176 43.6221C82.9508 43.874 82.2422 44.0945 81.392 44.2834C80.5732 44.4724 79.66 44.5668 78.6523 44.5668C77.5501 44.5668 76.5266 44.4094 75.5819 44.0945C74.6687 43.7796 73.8656 43.2915 73.1728 42.6301C72.48 41.9688 71.9289 41.1186 71.5195 40.0794C71.1417 39.0402 70.9527 37.7805 70.9527 36.3004V9.04496H75.204V35.8753Z" fill="black"/>
<path d="M108.792 44.2362C107.28 44.2362 106.084 43.937 105.202 43.3387C104.32 42.7404 103.706 41.8744 103.36 40.7407C102.257 41.8744 100.982 42.8033 99.5334 43.5276C98.1163 44.2204 96.5575 44.5668 94.857 44.5668C93.7863 44.5668 92.7471 44.3936 91.7394 44.0472C90.7632 43.7323 89.8814 43.2127 89.0941 42.4884C88.3383 41.7641 87.7243 40.8194 87.2519 39.6542C86.811 38.4891 86.5906 37.072 86.5906 35.403V19.437H90.8419V34.8361C90.8419 36.7571 91.2355 38.2371 92.0228 39.2763C92.8416 40.2841 94.054 40.7879 95.66 40.7879C96.9826 40.7879 98.2423 40.536 99.4389 40.0321C100.636 39.4968 101.706 38.7882 102.651 37.9065V19.437H106.902V37.6231C106.902 38.3159 106.981 38.8827 107.138 39.3236C107.296 39.733 107.501 40.0636 107.753 40.3155C108.004 40.536 108.304 40.6934 108.65 40.7879C108.996 40.8824 109.343 40.9296 109.689 40.9296L108.792 44.2362Z" fill="black"/>
<path d="M113.651 19.437C116.548 19.437 118.359 20.5864 119.083 22.8853C119.303 22.5389 119.634 22.1295 120.075 21.6571C120.547 21.1847 121.114 20.7439 121.776 20.3345C122.437 19.9251 123.193 19.5787 124.043 19.2953C124.893 19.0119 125.838 18.8702 126.877 18.8702C128.294 18.8702 129.648 19.1536 130.939 19.7204C132.262 20.2873 133.411 21.106 134.388 22.1767C135.395 23.2474 136.198 24.57 136.797 26.1446C137.395 27.7191 137.694 29.4984 137.694 31.4823C137.694 33.4348 137.395 35.214 136.797 36.82C136.23 38.4261 135.443 39.8117 134.435 40.9769C133.459 42.1105 132.325 42.9923 131.034 43.6221C129.743 44.2519 128.389 44.5668 126.972 44.5668C125.491 44.5668 124.122 44.2834 122.862 43.7166C121.634 43.1182 120.61 42.4412 119.792 41.6854V54.392H115.54V25.7195C115.54 24.6488 115.273 23.893 114.737 23.4521C114.233 22.9797 113.572 22.7436 112.753 22.7436L113.651 19.437ZM133.348 31.624C133.348 30.2069 133.144 28.9473 132.734 27.8451C132.357 26.7114 131.821 25.7509 131.128 24.9637C130.467 24.1764 129.68 23.5781 128.767 23.1687C127.885 22.7593 126.94 22.5546 125.932 22.5546C124.578 22.5546 123.35 22.901 122.248 23.5938C121.177 24.2551 120.358 24.9794 119.792 25.7667V37.8592C120.61 38.7095 121.539 39.4181 122.579 39.9849C123.649 40.5202 124.83 40.7879 126.121 40.7879C127.192 40.7879 128.168 40.5675 129.05 40.1266C129.932 39.6857 130.688 39.0717 131.317 38.2844C131.979 37.4656 132.482 36.5051 132.829 35.403C133.175 34.2693 133.348 33.0096 133.348 31.624Z" fill="black"/>
<path d="M181.837 12.8932C181.791 12.3498 181.333 11.9335 180.787 11.9388H172.814V8.91733C172.814 3.99231 168.822 0 163.897 0C158.972 0 154.98 3.99231 154.98 8.91733V11.9388H147.007C146.464 11.9409 146.01 12.3531 145.957 12.8932L143.209 44.4924C143.084 45.9574 143.579 47.4081 144.574 48.4912C145.569 49.574 146.973 50.1899 148.444 50.1887H179.361C180.831 50.1899 182.235 49.574 183.23 48.4912C184.225 47.4081 184.721 45.9574 184.596 44.4924L181.837 12.8932ZM157.078 8.91733C157.078 5.15123 160.131 2.09819 163.897 2.09819C167.663 2.09819 170.716 5.15123 170.716 8.91733V11.9388H157.078V8.91733ZM181.679 47.0729C181.086 47.7261 180.243 48.0962 179.361 48.0905H148.433C147.551 48.0909 146.709 47.7208 146.112 47.0709C145.516 46.4205 145.22 45.5497 145.296 44.6707L147.961 14.037H154.98V20.5832C153.292 21.1024 152.239 22.7773 152.502 24.5231C152.764 26.2684 154.264 27.5593 156.029 27.5593C157.794 27.5593 159.293 26.2684 159.556 24.5231C159.818 22.7773 158.765 21.1024 157.078 20.5832V14.0264H170.716V20.5832C169.029 21.1024 167.975 22.7773 168.238 24.5231C168.5 26.2684 170 27.5593 171.765 27.5593C173.53 27.5593 175.03 26.2684 175.292 24.5231C175.555 22.7773 174.501 21.1024 172.814 20.5832V14.0264H179.822L182.487 44.66C182.573 45.5427 182.279 46.4201 181.679 47.0729ZM155.871 22.5347C155.976 22.5486 156.082 22.5486 156.186 22.5347C156.962 22.6183 157.537 23.2945 157.495 24.0735C157.453 24.853 156.809 25.4636 156.029 25.4636C155.248 25.4636 154.604 24.853 154.562 24.0735C154.52 23.2945 155.095 22.6183 155.871 22.5347ZM171.608 22.5347C171.712 22.5486 171.818 22.5486 171.923 22.5347C172.698 22.6183 173.274 23.2945 173.232 24.0735C173.19 24.853 172.545 25.4636 171.765 25.4636C170.985 25.4636 170.34 24.853 170.299 24.0735C170.257 23.2945 170.832 22.6183 171.608 22.5347Z" fill="black"/>
</svg>
