<svg width="163" height="163" viewBox="0 0 163 163" fill="none" xmlns="http://www.w3.org/2000/svg">
<path d="M71.9492 0C64.0494 0 57.623 6.4264 57.623 14.3262V19.4199L67.1738 24.1953H71.9492H76.7246L86.2754 19.4199V14.3262C86.2754 6.4264 79.849 0 71.9492 0Z" fill="#427177"/>
<path d="M86.2754 19.4199V14.3262C86.2754 6.4264 79.849 0 71.9492 0V24.1953H76.7246L86.2754 19.4199Z" fill="#22AFC2"/>
<path d="M0 143.898C2.21292 154.797 12.3256 163 23.877 163C35.4283 163 45.8593 154.797 48.0723 143.898L37.6976 139.123H6.62952L0 143.898Z" fill="#474F54"/>
<path d="M23.877 153.449C15.9772 153.449 9.55078 147.023 9.55078 139.123C9.55078 131.223 15.9772 124.797 23.877 124.797C31.7767 124.797 38.5215 131.223 38.5215 139.123C38.5215 147.023 31.7767 153.449 23.877 153.449Z" fill="#F2F9FF"/>
<path d="M48.0723 57.9414H19.1016L9.55078 67.4922V96.1445L19.1016 100.92H48.0723L62.3984 96.1445V70.3574L57.623 67.4922L48.0723 57.9414Z" fill="#A2927E"/>
<path d="M9.55078 48.3906V67.4922H57.623L62.3984 65.0201L57.623 62.7168V48.3906H9.55078Z" fill="#C2B596"/>
<path d="M76.7246 143.898H0V139.123C0 120.661 15.2844 105.695 33.7461 105.695L41.7051 100.92H86.2754V135.939L76.7246 143.898Z" fill="#427177"/>
<path d="M0 96.1445H67.1738V105.695H0V96.1445Z" fill="#32393F"/>
<path d="M100.602 120.308V138.263L95.8262 143.898H76.7246V105.695H67.1738C61.9209 105.695 57.623 101.397 57.623 96.1445V72.2676H86.2754V86.5938C91.5283 86.5938 95.8262 90.8916 95.8262 96.1445V115.246L100.602 120.308Z" fill="#575F64"/>
<path d="M100.602 120.308V138.263L95.8262 143.898H76.7246V105.695H71.9492V72.2676H86.2754V86.5938C91.5283 86.5938 95.8262 90.8916 95.8262 96.1445V115.246L100.602 120.308Z" fill="#474F54"/>
<path d="M86.2754 67.4922V62.7168C86.2754 54.817 79.849 48.3906 71.9492 48.3906C64.0494 48.3906 57.623 54.817 57.623 62.7168V72.2676C57.623 80.1798 64.037 86.5938 71.9492 86.5938H110.471C118.383 86.5938 124.797 80.1798 124.797 72.2676V67.4922H86.2754Z" fill="#427177"/>
<path d="M124.797 72.2676V67.4922H86.2754V62.7168C86.2754 54.817 79.849 48.3906 71.9492 48.3906V86.5938H110.471C118.383 86.5938 124.797 80.1798 124.797 72.2676Z" fill="#22AFC2"/>
<path d="M76.7246 24.1953H71.9492H67.1738L57.623 28.9707V33.7461C57.623 41.6459 64.0494 48.3906 71.9492 48.3906C79.849 48.3906 86.2754 41.6459 86.2754 33.7461V28.9707L76.7246 24.1953Z" fill="#FFE1BA"/>
<path d="M86.2754 33.7461V28.9707L76.7246 24.1953H71.9492V48.3906C79.849 48.3906 86.2754 41.6459 86.2754 33.7461Z" fill="#FFBFAB"/>
<path d="M71.9492 19.4199H57.623V28.9707H71.9492H95.8262V19.4199H71.9492Z" fill="#474F54"/>
<path d="M71.9492 19.4199H95.8262V28.9707H71.9492V19.4199Z" fill="#32393F"/>
<path d="M137.957 97.2123C137.43 93.4955 136.385 86.1738 134.301 71.5911L115.246 62.7168V100.92C115.246 108.453 108.756 115.246 100.602 115.246H95.8262V143.898H105.377H153.449L163 139.123V129.572C163 114.295 152.461 100.976 137.957 97.2123Z" fill="#22AFC2"/>
<path d="M143.898 77.043H129.572C121.672 77.043 115.246 70.6166 115.246 62.7168C115.246 54.817 121.672 48.3906 129.572 48.3906H143.898V77.043Z" fill="#427177"/>
<path d="M140.558 115.391L139.17 120.698L131.099 116.733C121.889 120.048 115.246 128.786 115.246 139.123C115.246 152.288 125.958 163 139.123 163C152.288 163 163 152.288 163 139.123C163 126.449 153.044 116.15 140.558 115.391Z" fill="#32393F"/>
<path d="M139.123 124.797C131.223 124.797 124.797 131.223 124.797 139.123C124.797 147.023 131.223 153.449 139.123 153.449C147.023 153.449 153.449 147.023 153.449 139.123C153.449 131.223 147.023 124.797 139.123 124.797Z" fill="#DFE7F4"/>
<path d="M143.852 138.447L140.559 115.391C140.074 115.362 139.615 115.246 139.123 115.246C136.295 115.246 133.618 115.827 131.099 116.733L134.394 139.799L143.852 138.447Z" fill="#C7CFE1"/>
</svg>
