<svg width="141" height="162" viewBox="0 0 141 162" fill="none" xmlns="http://www.w3.org/2000/svg">
<path d="M126.711 117.399C126.711 117.399 114.363 69.2768 107.703 57.8239C101.044 46.371 81.1961 26.6249 34.3005 61.0329C-12.5951 95.4409 132.761 -81.1128 139.568 47.775C146.374 176.663 126.711 117.399 126.711 117.399Z" fill="#A8DFDC"/>
<path d="M136.233 106.087C121.414 82.5123 122.99 58.3474 115.847 46.9855C108.704 35.6235 87.4165 16.0343 37.1191 50.1689C-13.1784 84.3035 -0.385622 121.41 7.47422 133.904C44.2579 192.411 162.481 147.838 136.233 106.087Z" fill="#E7E6E6"/>
<path d="M73 70.1753C73 71.1145 72.4086 71.923 71.59 72.2007L52.5667 78.6973L46.3353 98.53C46.069 99.3834 45.2935 100 44.3927 100C43.5153 100 42.779 99.4243 42.4931 98.6362L26.1449 53.8992C26.0392 53.6623 26 53.4092 26 53.1315C26 51.9596 26.9204 51 28.0445 51C28.3108 51 28.5537 51.0408 28.7808 51.1511L71.6958 68.1949C72.4478 68.4889 73 69.2566 73 70.1753Z" fill="#F3F3F1"/>
<path d="M35.1116 53.8989C35.0677 53.8009 35.0717 53.6825 35.0478 53.5805L28.8287 51.1511C28.5976 51.0408 28.3506 51 28.0797 51C26.9363 51 26 51.9595 26 53.1313C26 53.409 26.0398 53.6621 26.1434 53.8989L42.7729 98.6363C43.0637 99.4243 43.8127 100 44.7052 100C45.6215 100 46.4104 99.3835 46.6813 98.5301L49 91.2747L35.1116 53.8989Z" fill="#D5DBE1"/>
<path d="M87.5 143C102.136 143 114 130.464 114 115C114 99.536 102.136 87 87.5 87C72.8645 87 61 99.536 61 115C61 130.464 72.8645 143 87.5 143Z" fill="#2FDF84"/>
<path d="M69.8571 115C69.8571 101.129 79.4386 89.6465 92 87.419C90.5553 87.1618 89.083 87 87.5714 87C72.8961 87 61 99.5357 61 115C61 130.464 72.8961 143 87.5714 143C89.083 143 90.5553 142.834 92 142.581C79.4386 140.353 69.8571 128.871 69.8571 115Z" fill="#00B871"/>
<path d="M117.436 74.9375L120.204 72.0499L125.741 77.8251L122.973 80.7126L117.436 74.9375Z" fill="#A4AFC1"/>
<path d="M101.522 58.3306L104.29 55.443L109.827 61.2181L107.059 64.1057L101.522 58.3306Z" fill="#A4AFC1"/>
<path d="M118.131 61.2214L123.668 55.4463L126.436 58.3339L120.899 64.109L118.131 61.2214Z" fill="#A4AFC1"/>
<path d="M102.214 77.8198L107.751 72.0447L110.52 74.9323L104.983 80.7074L102.214 77.8198Z" fill="#A4AFC1"/>
<path d="M96.4151 129L86.0377 119.784C85.3774 119.202 85 118.33 85 117.408V100H90.6604V115.954L100 124.249L96.4151 129Z" fill="black"/>
<path d="M44.3782 103C42.3209 103 40.4481 101.66 39.7178 99.6674L23.3337 55.0359C23.1296 54.5674 23 53.8952 23 53.1781C23 50.3222 25.2379 48 27.9902 48C28.6812 48 29.3291 48.1344 29.918 48.4074L72.7923 65.3515C74.7083 66.1093 76 68.0485 76 70.1874C76 72.4363 74.614 74.4122 72.5567 75.113L54.9044 81.1141L49.1211 99.4311C48.4497 101.562 46.5455 103 44.3782 103ZM29.545 54.7956L44.3194 95.023L49.7768 77.7367C50.0673 76.8119 50.7701 76.0867 51.6575 75.7852L68.3164 70.1222L29.545 54.7956ZM27.684 54.0581C27.6958 54.0622 27.7115 54.0704 27.7311 54.0744L27.684 54.0581ZM28.7833 52.7137L28.8344 52.8522C28.8187 52.8115 28.8029 52.7667 28.7833 52.7137Z" fill="black"/>
<path d="M87.5 146C71.2317 146 58 132.095 58 115C58 97.9045 71.2317 84 87.5 84C103.768 84 117 97.9045 117 115C117 132.095 103.768 146 87.5 146ZM87.5 90.2C74.4846 90.2 63.9 101.323 63.9 115C63.9 128.677 74.4846 139.8 87.5 139.8C100.515 139.8 111.1 128.677 111.1 115C111.1 101.323 100.515 90.2 87.5 90.2Z" fill="black"/>
</svg>
